<?xml version="1.0" encoding="utf-8"?>
<!-- Generator: Adobe Illustrator 16.0.0, SVG Export Plug-In . SVG Version: 6.00 Build 0)  -->
<!DOCTYPE svg PUBLIC "-//W3C//DTD SVG 1.1//EN" "http://www.w3.org/Graphics/SVG/1.1/DTD/svg11.dtd">
<svg version="1.1" id="Calque_1" xmlns="http://www.w3.org/2000/svg" xmlns:xlink="http://www.w3.org/1999/xlink" x="0px" y="0px"
	 width="510px" height="306px" viewBox="0 0 510 306" enable-background="new 0 0 510 306" xml:space="preserve">
<ellipse fill="#E6E7E8" stroke="#000000" stroke-miterlimit="10" cx="227.241" cy="163" rx="27.25" ry="87.5"/>
<ellipse fill="#FFFFFF" stroke="#000000" stroke-miterlimit="10" cx="239.102" cy="163" rx="27.25" ry="87.5"/>
<path fill="none" stroke="#000000" stroke-miterlimit="10" d="M391.812,143.552"/>
<path fill="none" stroke="#000000" stroke-miterlimit="10" d="M465.15,173.552"/>
<path fill="none" stroke="#000000" stroke-miterlimit="10" d="M392.812,173.552"/>
<path fill="none" stroke="#000000" stroke-miterlimit="10" d="M236.161,250.5"/>
<path fill="#FFFFFF" stroke="#000000" stroke-miterlimit="10" d="M235.321,120c-4.462,0-8.08,19.252-8.08,43s3.618,43,8.08,43
	H376.16v-86H235.321z"/>
<ellipse fill="#E6E7E8" stroke="#000000" stroke-miterlimit="10" cx="371.08" cy="163" rx="27.249" ry="87.5"/>
<ellipse fill="#FFFFFF" stroke="#000000" stroke-miterlimit="10" cx="381.08" cy="163" rx="27.249" ry="87.5"/>
<ellipse fill="#A7A9AC" stroke="#000000" stroke-miterlimit="10" cx="381.08" cy="163" rx="5" ry="15"/>
<g>
	<g>
		<g>
			<g>
				<g>
					<g>
						<rect x="381.08" y="140.501" fill="none" width="13.384" height="14.998"/>
					</g>
					<rect x="390.991" y="147.47" fill-rule="evenodd" clip-rule="evenodd" width="2.484" height="1.5"/>
					<rect x="386.535" y="147.47" fill-rule="evenodd" clip-rule="evenodd" width="2.484" height="1.5"/>
					<rect x="382.094" y="147.47" fill-rule="evenodd" clip-rule="evenodd" width="2.484" height="1.5"/>
				</g>
			</g>
			<g>
				<g>
					<g>
						<rect x="394.464" y="140.501" fill="none" width="13.384" height="14.998"/>
					</g>
					<rect x="404.375" y="147.47" fill-rule="evenodd" clip-rule="evenodd" width="2.484" height="1.5"/>
					<rect x="399.919" y="147.47" fill-rule="evenodd" clip-rule="evenodd" width="2.484" height="1.5"/>
					<rect x="395.479" y="147.47" fill-rule="evenodd" clip-rule="evenodd" width="2.484" height="1.5"/>
				</g>
			</g>
			<g>
				<g>
					<g>
						<rect x="407.848" y="140.501" fill="none" width="13.385" height="14.998"/>
					</g>
					<rect x="417.759" y="147.47" fill-rule="evenodd" clip-rule="evenodd" width="2.484" height="1.5"/>
					<rect x="413.304" y="147.47" fill-rule="evenodd" clip-rule="evenodd" width="2.483" height="1.5"/>
					<rect x="408.862" y="147.47" fill-rule="evenodd" clip-rule="evenodd" width="2.484" height="1.5"/>
				</g>
			</g>
			<g>
				<g>
					<g>
						<rect x="421.232" y="140.501" fill="none" width="13.384" height="14.998"/>
					</g>
					<rect x="431.143" y="147.47" fill-rule="evenodd" clip-rule="evenodd" width="2.484" height="1.5"/>
					<rect x="426.688" y="147.47" fill-rule="evenodd" clip-rule="evenodd" width="2.484" height="1.5"/>
					<rect x="422.246" y="147.47" fill-rule="evenodd" clip-rule="evenodd" width="2.484" height="1.5"/>
				</g>
			</g>
			<g>
				<g>
					<g>
						<rect x="434.616" y="140.501" fill="none" width="13.384" height="14.998"/>
					</g>
					<rect x="444.527" y="147.47" fill-rule="evenodd" clip-rule="evenodd" width="2.483" height="1.5"/>
					<rect x="440.071" y="147.47" fill-rule="evenodd" clip-rule="evenodd" width="2.484" height="1.5"/>
					<rect x="435.63" y="147.47" fill-rule="evenodd" clip-rule="evenodd" width="2.484" height="1.5"/>
				</g>
			</g>
		</g>
	</g>
</g>
<g>
	<g>
		<g>
			<g>
				<g>
					<g>
						<rect x="221.561" y="112.501" fill="none" width="13.76" height="14.998"/>
					</g>
					<rect x="222.577" y="119.03" fill-rule="evenodd" clip-rule="evenodd" width="2.554" height="1.5"/>
					<rect x="227.158" y="119.03" fill-rule="evenodd" clip-rule="evenodd" width="2.554" height="1.5"/>
					<rect x="231.724" y="119.03" fill-rule="evenodd" clip-rule="evenodd" width="2.554" height="1.5"/>
				</g>
			</g>
			<g>
				<g>
					<g>
						<rect x="207.801" y="112.501" fill="none" width="13.76" height="14.998"/>
					</g>
					<rect x="208.817" y="119.03" fill-rule="evenodd" clip-rule="evenodd" width="2.554" height="1.5"/>
					<rect x="213.398" y="119.03" fill-rule="evenodd" clip-rule="evenodd" width="2.554" height="1.5"/>
					<rect x="217.964" y="119.03" fill-rule="evenodd" clip-rule="evenodd" width="2.554" height="1.5"/>
				</g>
			</g>
			<g>
				<g>
					<g>
						<rect x="194.041" y="112.501" fill="none" width="13.76" height="14.998"/>
					</g>
					<rect x="195.057" y="119.03" fill-rule="evenodd" clip-rule="evenodd" width="2.554" height="1.5"/>
					<rect x="199.638" y="119.03" fill-rule="evenodd" clip-rule="evenodd" width="2.554" height="1.5"/>
					<rect x="204.204" y="119.03" fill-rule="evenodd" clip-rule="evenodd" width="2.554" height="1.5"/>
				</g>
			</g>
			<g>
				<g>
					<g>
						<rect x="180.28" y="112.501" fill="none" width="13.76" height="14.998"/>
					</g>
					<rect x="181.297" y="119.03" fill-rule="evenodd" clip-rule="evenodd" width="2.554" height="1.5"/>
					<rect x="185.878" y="119.03" fill-rule="evenodd" clip-rule="evenodd" width="2.554" height="1.5"/>
					<rect x="190.444" y="119.03" fill-rule="evenodd" clip-rule="evenodd" width="2.554" height="1.5"/>
				</g>
			</g>
			<g>
				<g>
					<g>
						<rect x="166.52" y="112.501" fill="none" width="13.76" height="14.998"/>
					</g>
					<rect x="167.537" y="119.03" fill-rule="evenodd" clip-rule="evenodd" width="2.554" height="1.5"/>
					<rect x="172.118" y="119.03" fill-rule="evenodd" clip-rule="evenodd" width="2.554" height="1.5"/>
					<rect x="176.684" y="119.03" fill-rule="evenodd" clip-rule="evenodd" width="2.554" height="1.5"/>
				</g>
			</g>
			<g>
				<g>
					<g>
						<rect x="152.76" y="112.501" fill="none" width="13.76" height="14.998"/>
					</g>
					<rect x="153.777" y="119.03" fill-rule="evenodd" clip-rule="evenodd" width="2.554" height="1.5"/>
					<rect x="158.357" y="119.03" fill-rule="evenodd" clip-rule="evenodd" width="2.554" height="1.5"/>
					<rect x="162.923" y="119.03" fill-rule="evenodd" clip-rule="evenodd" width="2.554" height="1.5"/>
				</g>
			</g>
			<g>
				<g>
					<g>
						<rect x="139" y="112.501" fill="none" width="13.76" height="14.998"/>
					</g>
					<rect x="140.017" y="119.03" fill-rule="evenodd" clip-rule="evenodd" width="2.554" height="1.5"/>
					<rect x="144.598" y="119.03" fill-rule="evenodd" clip-rule="evenodd" width="2.554" height="1.5"/>
					<rect x="149.164" y="119.03" fill-rule="evenodd" clip-rule="evenodd" width="2.554" height="1.5"/>
				</g>
			</g>
		</g>
	</g>
</g>
<g>
	<g>
		<g>
			<g>
				<g>
					<g>
						<rect x="221.561" y="198.501" fill="none" width="13.76" height="14.998"/>
					</g>
					<rect x="222.577" y="205.03" fill-rule="evenodd" clip-rule="evenodd" width="2.554" height="1.5"/>
					<rect x="227.158" y="205.03" fill-rule="evenodd" clip-rule="evenodd" width="2.554" height="1.5"/>
					<rect x="231.724" y="205.03" fill-rule="evenodd" clip-rule="evenodd" width="2.554" height="1.5"/>
				</g>
			</g>
			<g>
				<g>
					<g>
						<rect x="207.801" y="198.501" fill="none" width="13.76" height="14.998"/>
					</g>
					<rect x="208.817" y="205.03" fill-rule="evenodd" clip-rule="evenodd" width="2.554" height="1.5"/>
					<rect x="213.398" y="205.03" fill-rule="evenodd" clip-rule="evenodd" width="2.554" height="1.5"/>
					<rect x="217.964" y="205.03" fill-rule="evenodd" clip-rule="evenodd" width="2.554" height="1.5"/>
				</g>
			</g>
			<g>
				<g>
					<g>
						<rect x="194.041" y="198.501" fill="none" width="13.76" height="14.998"/>
					</g>
					<rect x="195.057" y="205.03" fill-rule="evenodd" clip-rule="evenodd" width="2.554" height="1.5"/>
					<rect x="199.638" y="205.03" fill-rule="evenodd" clip-rule="evenodd" width="2.554" height="1.5"/>
					<rect x="204.204" y="205.03" fill-rule="evenodd" clip-rule="evenodd" width="2.554" height="1.5"/>
				</g>
			</g>
			<g>
				<g>
					<g>
						<rect x="180.28" y="198.501" fill="none" width="13.76" height="14.998"/>
					</g>
					<rect x="181.297" y="205.03" fill-rule="evenodd" clip-rule="evenodd" width="2.554" height="1.5"/>
					<rect x="185.878" y="205.03" fill-rule="evenodd" clip-rule="evenodd" width="2.554" height="1.5"/>
					<rect x="190.444" y="205.03" fill-rule="evenodd" clip-rule="evenodd" width="2.554" height="1.5"/>
				</g>
			</g>
			<g>
				<g>
					<g>
						<rect x="166.52" y="198.501" fill="none" width="13.76" height="14.998"/>
					</g>
					<rect x="167.537" y="205.03" fill-rule="evenodd" clip-rule="evenodd" width="2.554" height="1.5"/>
					<rect x="172.118" y="205.03" fill-rule="evenodd" clip-rule="evenodd" width="2.554" height="1.5"/>
					<rect x="176.684" y="205.03" fill-rule="evenodd" clip-rule="evenodd" width="2.554" height="1.5"/>
				</g>
			</g>
			<g>
				<g>
					<g>
						<rect x="152.76" y="198.501" fill="none" width="13.76" height="14.998"/>
					</g>
					<rect x="153.777" y="205.03" fill-rule="evenodd" clip-rule="evenodd" width="2.554" height="1.5"/>
					<rect x="158.357" y="205.03" fill-rule="evenodd" clip-rule="evenodd" width="2.554" height="1.5"/>
					<rect x="162.923" y="205.03" fill-rule="evenodd" clip-rule="evenodd" width="2.554" height="1.5"/>
				</g>
			</g>
			<g>
				<g>
					<g>
						<rect x="139" y="198.501" fill="none" width="13.76" height="14.998"/>
					</g>
					<rect x="140.017" y="205.03" fill-rule="evenodd" clip-rule="evenodd" width="2.554" height="1.5"/>
					<rect x="144.598" y="205.03" fill-rule="evenodd" clip-rule="evenodd" width="2.554" height="1.5"/>
					<rect x="149.164" y="205.03" fill-rule="evenodd" clip-rule="evenodd" width="2.554" height="1.5"/>
				</g>
			</g>
		</g>
	</g>
</g>
<g>
	<g>
		<g>
			<g>
				<g>
					<g>
						<rect x="131.501" y="191.667" fill="none" width="14.998" height="14.333"/>
					</g>
					<rect x="138.47" y="192.726" fill-rule="evenodd" clip-rule="evenodd" width="1.5" height="2.661"/>
					<rect x="138.47" y="197.498" fill-rule="evenodd" clip-rule="evenodd" width="1.5" height="2.66"/>
					<rect x="138.47" y="202.253" fill-rule="evenodd" clip-rule="evenodd" width="1.5" height="2.661"/>
				</g>
			</g>
			<g>
				<g>
					<g>
						<rect x="131.501" y="177.333" fill="none" width="14.998" height="14.333"/>
					</g>
					<rect x="138.47" y="178.393" fill-rule="evenodd" clip-rule="evenodd" width="1.5" height="2.66"/>
					<rect x="138.47" y="183.164" fill-rule="evenodd" clip-rule="evenodd" width="1.5" height="2.661"/>
					<rect x="138.47" y="187.92" fill-rule="evenodd" clip-rule="evenodd" width="1.5" height="2.661"/>
				</g>
			</g>
			<g>
				<g>
					<g>
						<rect x="131.501" y="163" fill="none" width="14.998" height="14.333"/>
					</g>
					<rect x="138.47" y="164.059" fill-rule="evenodd" clip-rule="evenodd" width="1.5" height="2.661"/>
					<rect x="138.47" y="168.831" fill-rule="evenodd" clip-rule="evenodd" width="1.5" height="2.661"/>
					<rect x="138.47" y="173.587" fill-rule="evenodd" clip-rule="evenodd" width="1.5" height="2.66"/>
				</g>
			</g>
			<g>
				<g>
					<g>
						<rect x="131.501" y="148.667" fill="none" width="14.998" height="14.333"/>
					</g>
					<rect x="138.47" y="149.726" fill-rule="evenodd" clip-rule="evenodd" width="1.5" height="2.661"/>
					<rect x="138.47" y="154.498" fill-rule="evenodd" clip-rule="evenodd" width="1.5" height="2.66"/>
					<rect x="138.47" y="159.253" fill-rule="evenodd" clip-rule="evenodd" width="1.5" height="2.661"/>
				</g>
			</g>
			<g>
				<g>
					<g>
						<rect x="131.501" y="134.333" fill="none" width="14.998" height="14.333"/>
					</g>
					<rect x="138.47" y="135.393" fill-rule="evenodd" clip-rule="evenodd" width="1.5" height="2.66"/>
					<rect x="138.47" y="140.164" fill-rule="evenodd" clip-rule="evenodd" width="1.5" height="2.661"/>
					<rect x="138.47" y="144.92" fill-rule="evenodd" clip-rule="evenodd" width="1.5" height="2.661"/>
				</g>
			</g>
			<g>
				<g>
					<g>
						<rect x="131.501" y="120" fill="none" width="14.998" height="14.333"/>
					</g>
					<rect x="138.47" y="121.059" fill-rule="evenodd" clip-rule="evenodd" width="1.5" height="2.661"/>
					<rect x="138.47" y="125.831" fill-rule="evenodd" clip-rule="evenodd" width="1.5" height="2.661"/>
					<rect x="138.47" y="130.587" fill-rule="evenodd" clip-rule="evenodd" width="1.5" height="2.66"/>
				</g>
			</g>
		</g>
	</g>
</g>
<g>
	<g>
		<g>
			<g>
				<g>
					<g>
						<rect x="213.607" y="68" fill="none" width="13.634" height="14.999"/>
					</g>
					<rect x="214.614" y="74.53" fill-rule="evenodd" clip-rule="evenodd" width="2.531" height="1.5"/>
					<rect x="219.153" y="74.53" fill-rule="evenodd" clip-rule="evenodd" width="2.531" height="1.5"/>
					<rect x="223.677" y="74.53" fill-rule="evenodd" clip-rule="evenodd" width="2.53" height="1.5"/>
				</g>
			</g>
			<g>
				<g>
					<g>
						<rect x="199.973" y="68" fill="none" width="13.634" height="14.999"/>
					</g>
					<rect x="200.98" y="74.53" fill-rule="evenodd" clip-rule="evenodd" width="2.53" height="1.5"/>
					<rect x="205.519" y="74.53" fill-rule="evenodd" clip-rule="evenodd" width="2.531" height="1.5"/>
					<rect x="210.043" y="74.53" fill-rule="evenodd" clip-rule="evenodd" width="2.531" height="1.5"/>
				</g>
			</g>
			<g>
				<g>
					<g>
						<rect x="186.339" y="68" fill="none" width="13.634" height="14.999"/>
					</g>
					<rect x="187.346" y="74.53" fill-rule="evenodd" clip-rule="evenodd" width="2.531" height="1.5"/>
					<rect x="191.885" y="74.53" fill-rule="evenodd" clip-rule="evenodd" width="2.531" height="1.5"/>
					<rect x="196.409" y="74.53" fill-rule="evenodd" clip-rule="evenodd" width="2.531" height="1.5"/>
				</g>
			</g>
			<g>
				<g>
					<g>
						<rect x="172.705" y="68" fill="none" width="13.634" height="14.999"/>
					</g>
					<rect x="173.712" y="74.53" fill-rule="evenodd" clip-rule="evenodd" width="2.531" height="1.5"/>
					<rect x="178.251" y="74.53" fill-rule="evenodd" clip-rule="evenodd" width="2.53" height="1.5"/>
					<rect x="182.775" y="74.53" fill-rule="evenodd" clip-rule="evenodd" width="2.531" height="1.5"/>
				</g>
			</g>
			<g>
				<g>
					<g>
						<rect x="159.071" y="68" fill="none" width="13.634" height="14.999"/>
					</g>
					<rect x="160.079" y="74.53" fill-rule="evenodd" clip-rule="evenodd" width="2.531" height="1.5"/>
					<rect x="164.617" y="74.53" fill-rule="evenodd" clip-rule="evenodd" width="2.531" height="1.5"/>
					<rect x="169.142" y="74.53" fill-rule="evenodd" clip-rule="evenodd" width="2.53" height="1.5"/>
				</g>
			</g>
			<g>
				<g>
					<g>
						<rect x="145.438" y="68" fill="none" width="13.634" height="14.999"/>
					</g>
					<rect x="146.445" y="74.53" fill-rule="evenodd" clip-rule="evenodd" width="2.53" height="1.5"/>
					<rect x="150.983" y="74.53" fill-rule="evenodd" clip-rule="evenodd" width="2.531" height="1.5"/>
					<rect x="155.507" y="74.53" fill-rule="evenodd" clip-rule="evenodd" width="2.531" height="1.5"/>
				</g>
			</g>
			<g>
				<g>
					<g>
						<rect x="131.803" y="68" fill="none" width="13.634" height="14.999"/>
					</g>
					<rect x="132.811" y="74.53" fill-rule="evenodd" clip-rule="evenodd" width="2.531" height="1.5"/>
					<rect x="137.35" y="74.53" fill-rule="evenodd" clip-rule="evenodd" width="2.531" height="1.5"/>
					<rect x="141.874" y="74.53" fill-rule="evenodd" clip-rule="evenodd" width="2.531" height="1.5"/>
				</g>
			</g>
			<g>
				<g>
					<g>
						<rect x="118.169" y="68" fill="none" width="13.634" height="14.999"/>
					</g>
					<rect x="119.177" y="74.53" fill-rule="evenodd" clip-rule="evenodd" width="2.531" height="1.5"/>
					<rect x="123.716" y="74.53" fill-rule="evenodd" clip-rule="evenodd" width="2.531" height="1.5"/>
					<rect x="128.24" y="74.53" fill-rule="evenodd" clip-rule="evenodd" width="2.531" height="1.5"/>
				</g>
			</g>
			<g>
				<g>
					<g>
						<rect x="104.536" y="68" fill="none" width="13.634" height="14.999"/>
					</g>
					<rect x="105.543" y="74.53" fill-rule="evenodd" clip-rule="evenodd" width="2.531" height="1.5"/>
					<rect x="110.082" y="74.53" fill-rule="evenodd" clip-rule="evenodd" width="2.53" height="1.5"/>
					<rect x="114.606" y="74.53" fill-rule="evenodd" clip-rule="evenodd" width="2.531" height="1.5"/>
				</g>
			</g>
			<g>
				<g>
					<g>
						<rect x="90.902" y="68" fill="none" width="13.634" height="14.999"/>
					</g>
					<rect x="91.909" y="74.53" fill-rule="evenodd" clip-rule="evenodd" width="2.53" height="1.5"/>
					<rect x="96.448" y="74.53" fill-rule="evenodd" clip-rule="evenodd" width="2.531" height="1.5"/>
					<rect x="100.972" y="74.53" fill-rule="evenodd" clip-rule="evenodd" width="2.53" height="1.5"/>
				</g>
			</g>
			<g>
				<g>
					<g>
						<rect x="77.268" y="68" fill="none" width="13.634" height="14.999"/>
					</g>
					<rect x="78.275" y="74.53" fill-rule="evenodd" clip-rule="evenodd" width="2.531" height="1.5"/>
					<rect x="82.814" y="74.53" fill-rule="evenodd" clip-rule="evenodd" width="2.531" height="1.5"/>
					<rect x="87.338" y="74.53" fill-rule="evenodd" clip-rule="evenodd" width="2.531" height="1.5"/>
				</g>
			</g>
			<g>
				<g>
					<g>
						<rect x="63.634" y="68" fill="none" width="13.634" height="14.999"/>
					</g>
					<rect x="64.641" y="74.53" fill-rule="evenodd" clip-rule="evenodd" width="2.531" height="1.5"/>
					<rect x="69.18" y="74.53" fill-rule="evenodd" clip-rule="evenodd" width="2.531" height="1.5"/>
					<rect x="73.704" y="74.53" fill-rule="evenodd" clip-rule="evenodd" width="2.531" height="1.5"/>
				</g>
			</g>
			<g>
				<g>
					<g>
						<rect x="50" y="68.001" fill="none" width="13.634" height="14.998"/>
					</g>
					<rect x="51.007" y="74.53" fill-rule="evenodd" clip-rule="evenodd" width="2.531" height="1.5"/>
					<rect x="55.546" y="74.53" fill-rule="evenodd" clip-rule="evenodd" width="2.53" height="1.5"/>
					<rect x="60.07" y="74.53" fill-rule="evenodd" clip-rule="evenodd" width="2.531" height="1.5"/>
				</g>
			</g>
		</g>
	</g>
</g>
<g>
	<g>
		<g>
			<g>
				<g>
					<g>
						<rect x="213.607" y="243.001" fill="none" width="13.634" height="14.998"/>
					</g>
					<rect x="214.614" y="249.53" fill-rule="evenodd" clip-rule="evenodd" width="2.531" height="1.5"/>
					<rect x="219.153" y="249.53" fill-rule="evenodd" clip-rule="evenodd" width="2.531" height="1.5"/>
					<rect x="223.677" y="249.53" fill-rule="evenodd" clip-rule="evenodd" width="2.53" height="1.5"/>
				</g>
			</g>
			<g>
				<g>
					<g>
						<rect x="199.973" y="243.001" fill="none" width="13.634" height="14.998"/>
					</g>
					<rect x="200.98" y="249.53" fill-rule="evenodd" clip-rule="evenodd" width="2.53" height="1.5"/>
					<rect x="205.519" y="249.53" fill-rule="evenodd" clip-rule="evenodd" width="2.531" height="1.5"/>
					<rect x="210.043" y="249.53" fill-rule="evenodd" clip-rule="evenodd" width="2.531" height="1.5"/>
				</g>
			</g>
			<g>
				<g>
					<g>
						<rect x="186.339" y="243.001" fill="none" width="13.634" height="14.998"/>
					</g>
					<rect x="187.346" y="249.53" fill-rule="evenodd" clip-rule="evenodd" width="2.531" height="1.5"/>
					<rect x="191.885" y="249.53" fill-rule="evenodd" clip-rule="evenodd" width="2.531" height="1.5"/>
					<rect x="196.409" y="249.53" fill-rule="evenodd" clip-rule="evenodd" width="2.531" height="1.5"/>
				</g>
			</g>
			<g>
				<g>
					<g>
						<rect x="172.705" y="243.001" fill="none" width="13.634" height="14.998"/>
					</g>
					<rect x="173.712" y="249.53" fill-rule="evenodd" clip-rule="evenodd" width="2.531" height="1.5"/>
					<rect x="178.251" y="249.53" fill-rule="evenodd" clip-rule="evenodd" width="2.53" height="1.5"/>
					<rect x="182.775" y="249.53" fill-rule="evenodd" clip-rule="evenodd" width="2.531" height="1.5"/>
				</g>
			</g>
			<g>
				<g>
					<g>
						<rect x="159.071" y="243.001" fill="none" width="13.634" height="14.998"/>
					</g>
					<rect x="160.079" y="249.53" fill-rule="evenodd" clip-rule="evenodd" width="2.531" height="1.5"/>
					<rect x="164.617" y="249.53" fill-rule="evenodd" clip-rule="evenodd" width="2.531" height="1.5"/>
					<rect x="169.142" y="249.53" fill-rule="evenodd" clip-rule="evenodd" width="2.53" height="1.5"/>
				</g>
			</g>
			<g>
				<g>
					<g>
						<rect x="145.438" y="243.001" fill="none" width="13.634" height="14.998"/>
					</g>
					<rect x="146.445" y="249.53" fill-rule="evenodd" clip-rule="evenodd" width="2.53" height="1.5"/>
					<rect x="150.983" y="249.53" fill-rule="evenodd" clip-rule="evenodd" width="2.531" height="1.5"/>
					<rect x="155.507" y="249.53" fill-rule="evenodd" clip-rule="evenodd" width="2.531" height="1.5"/>
				</g>
			</g>
			<g>
				<g>
					<g>
						<rect x="131.803" y="243.001" fill="none" width="13.634" height="14.998"/>
					</g>
					<rect x="132.811" y="249.53" fill-rule="evenodd" clip-rule="evenodd" width="2.531" height="1.5"/>
					<rect x="137.35" y="249.53" fill-rule="evenodd" clip-rule="evenodd" width="2.531" height="1.5"/>
					<rect x="141.874" y="249.53" fill-rule="evenodd" clip-rule="evenodd" width="2.531" height="1.5"/>
				</g>
			</g>
			<g>
				<g>
					<g>
						<rect x="118.169" y="243.001" fill="none" width="13.634" height="14.998"/>
					</g>
					<rect x="119.177" y="249.53" fill-rule="evenodd" clip-rule="evenodd" width="2.531" height="1.5"/>
					<rect x="123.716" y="249.53" fill-rule="evenodd" clip-rule="evenodd" width="2.531" height="1.5"/>
					<rect x="128.24" y="249.53" fill-rule="evenodd" clip-rule="evenodd" width="2.531" height="1.5"/>
				</g>
			</g>
			<g>
				<g>
					<g>
						<rect x="104.536" y="243.001" fill="none" width="13.634" height="14.998"/>
					</g>
					<rect x="105.543" y="249.53" fill-rule="evenodd" clip-rule="evenodd" width="2.531" height="1.5"/>
					<rect x="110.082" y="249.53" fill-rule="evenodd" clip-rule="evenodd" width="2.53" height="1.5"/>
					<rect x="114.606" y="249.53" fill-rule="evenodd" clip-rule="evenodd" width="2.531" height="1.5"/>
				</g>
			</g>
			<g>
				<g>
					<g>
						<rect x="90.902" y="243.001" fill="none" width="13.634" height="14.998"/>
					</g>
					<rect x="91.909" y="249.53" fill-rule="evenodd" clip-rule="evenodd" width="2.53" height="1.5"/>
					<rect x="96.448" y="249.53" fill-rule="evenodd" clip-rule="evenodd" width="2.531" height="1.5"/>
					<rect x="100.972" y="249.53" fill-rule="evenodd" clip-rule="evenodd" width="2.53" height="1.5"/>
				</g>
			</g>
			<g>
				<g>
					<g>
						<rect x="77.268" y="243.001" fill="none" width="13.634" height="14.998"/>
					</g>
					<rect x="78.275" y="249.53" fill-rule="evenodd" clip-rule="evenodd" width="2.531" height="1.5"/>
					<rect x="82.814" y="249.53" fill-rule="evenodd" clip-rule="evenodd" width="2.531" height="1.5"/>
					<rect x="87.338" y="249.53" fill-rule="evenodd" clip-rule="evenodd" width="2.531" height="1.5"/>
				</g>
			</g>
			<g>
				<g>
					<g>
						<rect x="63.634" y="243.001" fill="none" width="13.634" height="14.998"/>
					</g>
					<rect x="64.641" y="249.53" fill-rule="evenodd" clip-rule="evenodd" width="2.531" height="1.5"/>
					<rect x="69.18" y="249.53" fill-rule="evenodd" clip-rule="evenodd" width="2.531" height="1.5"/>
					<rect x="73.704" y="249.53" fill-rule="evenodd" clip-rule="evenodd" width="2.531" height="1.5"/>
				</g>
			</g>
			<g>
				<g>
					<g>
						<rect x="50" y="243.001" fill="none" width="13.634" height="14.998"/>
					</g>
					<rect x="51.007" y="249.53" fill-rule="evenodd" clip-rule="evenodd" width="2.531" height="1.5"/>
					<rect x="55.546" y="249.53" fill-rule="evenodd" clip-rule="evenodd" width="2.53" height="1.5"/>
					<rect x="60.07" y="249.53" fill-rule="evenodd" clip-rule="evenodd" width="2.531" height="1.5"/>
				</g>
			</g>
		</g>
	</g>
</g>
<g>
	<line fill="#1C75BC" x1="50" y1="75.5" x2="50" y2="250.5"/>
	<g>
		<g>
			<g>
				<g>
					<g>
						<rect x="42.501" y="75.5" fill="none" width="14.998" height="13.461"/>
					</g>
					<rect x="49.03" y="85.468" fill-rule="evenodd" clip-rule="evenodd" width="1.5" height="2.499"/>
					<rect x="49.03" y="80.987" fill-rule="evenodd" clip-rule="evenodd" width="1.5" height="2.499"/>
					<rect x="49.03" y="76.52" fill-rule="evenodd" clip-rule="evenodd" width="1.5" height="2.499"/>
				</g>
			</g>
			<g>
				<g>
					<g>
						<rect x="42.501" y="88.961" fill="none" width="14.998" height="13.461"/>
					</g>
					<rect x="49.03" y="98.93" fill-rule="evenodd" clip-rule="evenodd" width="1.5" height="2.499"/>
					<rect x="49.03" y="94.448" fill-rule="evenodd" clip-rule="evenodd" width="1.5" height="2.499"/>
					<rect x="49.03" y="89.981" fill-rule="evenodd" clip-rule="evenodd" width="1.5" height="2.499"/>
				</g>
			</g>
			<g>
				<g>
					<g>
						<rect x="42.501" y="102.423" fill="none" width="14.998" height="13.462"/>
					</g>
					<rect x="49.03" y="112.392" fill-rule="evenodd" clip-rule="evenodd" width="1.5" height="2.499"/>
					<rect x="49.03" y="107.91" fill-rule="evenodd" clip-rule="evenodd" width="1.5" height="2.499"/>
					<rect x="49.03" y="103.443" fill-rule="evenodd" clip-rule="evenodd" width="1.5" height="2.499"/>
				</g>
			</g>
			<g>
				<g>
					<g>
						<rect x="42.501" y="115.885" fill="none" width="14.998" height="13.461"/>
					</g>
					<rect x="49.03" y="125.853" fill-rule="evenodd" clip-rule="evenodd" width="1.5" height="2.499"/>
					<rect x="49.03" y="121.372" fill-rule="evenodd" clip-rule="evenodd" width="1.5" height="2.499"/>
					<rect x="49.03" y="116.905" fill-rule="evenodd" clip-rule="evenodd" width="1.5" height="2.499"/>
				</g>
			</g>
			<g>
				<g>
					<g>
						<rect x="42.501" y="129.346" fill="none" width="14.998" height="13.461"/>
					</g>
					<rect x="49.03" y="139.314" fill-rule="evenodd" clip-rule="evenodd" width="1.5" height="2.499"/>
					<rect x="49.03" y="134.833" fill-rule="evenodd" clip-rule="evenodd" width="1.5" height="2.499"/>
					<rect x="49.03" y="130.366" fill-rule="evenodd" clip-rule="evenodd" width="1.5" height="2.499"/>
				</g>
			</g>
			<g>
				<g>
					<g>
						<rect x="42.501" y="142.808" fill="none" width="14.998" height="13.461"/>
					</g>
					<rect x="49.03" y="152.776" fill-rule="evenodd" clip-rule="evenodd" width="1.5" height="2.499"/>
					<rect x="49.03" y="148.294" fill-rule="evenodd" clip-rule="evenodd" width="1.5" height="2.499"/>
					<rect x="49.03" y="143.828" fill-rule="evenodd" clip-rule="evenodd" width="1.5" height="2.499"/>
				</g>
			</g>
			<g>
				<g>
					<g>
						<rect x="42.501" y="156.269" fill="none" width="14.998" height="13.462"/>
					</g>
					<rect x="49.03" y="166.237" fill-rule="evenodd" clip-rule="evenodd" width="1.5" height="2.499"/>
					<rect x="49.03" y="161.756" fill-rule="evenodd" clip-rule="evenodd" width="1.5" height="2.499"/>
					<rect x="49.03" y="157.289" fill-rule="evenodd" clip-rule="evenodd" width="1.5" height="2.499"/>
				</g>
			</g>
			<g>
				<g>
					<g>
						<rect x="42.501" y="169.731" fill="none" width="14.998" height="13.461"/>
					</g>
					<rect x="49.03" y="179.699" fill-rule="evenodd" clip-rule="evenodd" width="1.5" height="2.499"/>
					<rect x="49.03" y="175.218" fill-rule="evenodd" clip-rule="evenodd" width="1.5" height="2.499"/>
					<rect x="49.03" y="170.751" fill-rule="evenodd" clip-rule="evenodd" width="1.5" height="2.499"/>
				</g>
			</g>
			<g>
				<g>
					<g>
						<rect x="42.501" y="183.192" fill="none" width="14.998" height="13.461"/>
					</g>
					<rect x="49.03" y="193.161" fill-rule="evenodd" clip-rule="evenodd" width="1.5" height="2.499"/>
					<rect x="49.03" y="188.679" fill-rule="evenodd" clip-rule="evenodd" width="1.5" height="2.499"/>
					<rect x="49.03" y="184.212" fill-rule="evenodd" clip-rule="evenodd" width="1.5" height="2.499"/>
				</g>
			</g>
			<g>
				<g>
					<g>
						<rect x="42.501" y="196.654" fill="none" width="14.998" height="13.461"/>
					</g>
					<rect x="49.03" y="206.622" fill-rule="evenodd" clip-rule="evenodd" width="1.5" height="2.499"/>
					<rect x="49.03" y="202.141" fill-rule="evenodd" clip-rule="evenodd" width="1.5" height="2.499"/>
					<rect x="49.03" y="197.674" fill-rule="evenodd" clip-rule="evenodd" width="1.5" height="2.499"/>
				</g>
			</g>
			<g>
				<g>
					<g>
						<rect x="42.501" y="210.115" fill="none" width="14.998" height="13.462"/>
					</g>
					<rect x="49.03" y="220.083" fill-rule="evenodd" clip-rule="evenodd" width="1.5" height="2.499"/>
					<rect x="49.03" y="215.602" fill-rule="evenodd" clip-rule="evenodd" width="1.5" height="2.499"/>
					<rect x="49.03" y="211.135" fill-rule="evenodd" clip-rule="evenodd" width="1.5" height="2.499"/>
				</g>
			</g>
			<g>
				<g>
					<g>
						<rect x="42.501" y="223.577" fill="none" width="14.998" height="13.461"/>
					</g>
					<rect x="49.03" y="233.545" fill-rule="evenodd" clip-rule="evenodd" width="1.5" height="2.499"/>
					<rect x="49.03" y="229.063" fill-rule="evenodd" clip-rule="evenodd" width="1.5" height="2.499"/>
					<rect x="49.03" y="224.597" fill-rule="evenodd" clip-rule="evenodd" width="1.5" height="2.499"/>
				</g>
			</g>
			<g>
				<g>
					<g>
						<rect x="42.501" y="237.039" fill="none" width="14.998" height="13.461"/>
					</g>
					<rect x="49.03" y="247.007" fill-rule="evenodd" clip-rule="evenodd" width="1.5" height="2.499"/>
					<rect x="49.03" y="242.525" fill-rule="evenodd" clip-rule="evenodd" width="1.5" height="2.498"/>
					<rect x="49.03" y="238.059" fill-rule="evenodd" clip-rule="evenodd" width="1.5" height="2.498"/>
				</g>
			</g>
		</g>
	</g>
</g>
<g>
	<g>
		<g>
			<g>
				<g>
					<g>
						<rect x="219.741" y="62" fill="none" width="14.999" height="13.5"/>
					</g>
					<rect x="226.71" y="62.997" fill-rule="evenodd" clip-rule="evenodd" width="1.5" height="2.506"/>
					<rect x="226.71" y="67.491" fill-rule="evenodd" clip-rule="evenodd" width="1.5" height="2.506"/>
					<rect x="226.71" y="71.971" fill-rule="evenodd" clip-rule="evenodd" width="1.5" height="2.506"/>
				</g>
			</g>
			<g>
				<g>
					<g>
						<rect x="219.741" y="48.5" fill="none" width="14.999" height="13.5"/>
					</g>
					<rect x="226.71" y="49.497" fill-rule="evenodd" clip-rule="evenodd" width="1.5" height="2.506"/>
					<rect x="226.71" y="53.992" fill-rule="evenodd" clip-rule="evenodd" width="1.5" height="2.505"/>
					<rect x="226.71" y="58.471" fill-rule="evenodd" clip-rule="evenodd" width="1.5" height="2.505"/>
				</g>
			</g>
			<g>
				<g>
					<g>
						<rect x="219.741" y="35" fill="none" width="14.999" height="13.5"/>
					</g>
					<rect x="226.71" y="35.998" fill-rule="evenodd" clip-rule="evenodd" width="1.5" height="2.506"/>
					<rect x="226.71" y="40.492" fill-rule="evenodd" clip-rule="evenodd" width="1.5" height="2.506"/>
					<rect x="226.71" y="44.971" fill-rule="evenodd" clip-rule="evenodd" width="1.5" height="2.506"/>
				</g>
			</g>
		</g>
	</g>
</g>
<g>
	<g>
		<g>
			<g>
				<g>
					<g>
						<rect x="227.241" y="27.501" fill="none" width="13.985" height="14.998"/>
					</g>
					<rect x="237.597" y="34.47" fill-rule="evenodd" clip-rule="evenodd" width="2.596" height="1.5"/>
					<rect x="232.941" y="34.47" fill-rule="evenodd" clip-rule="evenodd" width="2.596" height="1.5"/>
					<rect x="228.3" y="34.47" fill-rule="evenodd" clip-rule="evenodd" width="2.596" height="1.5"/>
				</g>
			</g>
			<g>
				<g>
					<g>
						<rect x="241.226" y="27.501" fill="none" width="13.985" height="14.998"/>
					</g>
					<rect x="251.583" y="34.47" fill-rule="evenodd" clip-rule="evenodd" width="2.596" height="1.5"/>
					<rect x="246.926" y="34.47" fill-rule="evenodd" clip-rule="evenodd" width="2.596" height="1.5"/>
					<rect x="242.286" y="34.47" fill-rule="evenodd" clip-rule="evenodd" width="2.596" height="1.5"/>
				</g>
			</g>
			<g>
				<g>
					<g>
						<rect x="255.211" y="27.501" fill="none" width="13.985" height="14.998"/>
					</g>
					<rect x="265.568" y="34.47" fill-rule="evenodd" clip-rule="evenodd" width="2.596" height="1.5"/>
					<rect x="260.912" y="34.47" fill-rule="evenodd" clip-rule="evenodd" width="2.596" height="1.5"/>
					<rect x="256.271" y="34.47" fill-rule="evenodd" clip-rule="evenodd" width="2.596" height="1.5"/>
				</g>
			</g>
			<g>
				<g>
					<g>
						<rect x="269.197" y="27.501" fill="none" width="13.985" height="14.998"/>
					</g>
					<rect x="279.553" y="34.47" fill-rule="evenodd" clip-rule="evenodd" width="2.596" height="1.5"/>
					<rect x="274.897" y="34.47" fill-rule="evenodd" clip-rule="evenodd" width="2.596" height="1.5"/>
					<rect x="270.256" y="34.47" fill-rule="evenodd" clip-rule="evenodd" width="2.596" height="1.5"/>
				</g>
			</g>
			<g>
				<g>
					<g>
						<rect x="283.182" y="27.501" fill="none" width="13.985" height="14.998"/>
					</g>
					<rect x="293.539" y="34.47" fill-rule="evenodd" clip-rule="evenodd" width="2.596" height="1.5"/>
					<rect x="288.883" y="34.47" fill-rule="evenodd" clip-rule="evenodd" width="2.596" height="1.5"/>
					<rect x="284.242" y="34.47" fill-rule="evenodd" clip-rule="evenodd" width="2.596" height="1.5"/>
				</g>
			</g>
			<g>
				<g>
					<g>
						<rect x="297.167" y="27.501" fill="none" width="13.986" height="14.998"/>
					</g>
					<rect x="307.523" y="34.47" fill-rule="evenodd" clip-rule="evenodd" width="2.597" height="1.5"/>
					<rect x="302.868" y="34.47" fill-rule="evenodd" clip-rule="evenodd" width="2.596" height="1.5"/>
					<rect x="298.228" y="34.47" fill-rule="evenodd" clip-rule="evenodd" width="2.596" height="1.5"/>
				</g>
			</g>
			<g>
				<g>
					<g>
						<rect x="311.153" y="27.501" fill="none" width="13.985" height="14.998"/>
					</g>
					<rect x="321.51" y="34.47" fill-rule="evenodd" clip-rule="evenodd" width="2.596" height="1.5"/>
					<rect x="316.854" y="34.47" fill-rule="evenodd" clip-rule="evenodd" width="2.596" height="1.5"/>
					<rect x="312.213" y="34.47" fill-rule="evenodd" clip-rule="evenodd" width="2.596" height="1.5"/>
				</g>
			</g>
			<g>
				<g>
					<g>
						<rect x="325.139" y="27.501" fill="none" width="13.985" height="14.998"/>
					</g>
					<rect x="335.495" y="34.47" fill-rule="evenodd" clip-rule="evenodd" width="2.596" height="1.5"/>
					<rect x="330.839" y="34.47" fill-rule="evenodd" clip-rule="evenodd" width="2.596" height="1.5"/>
					<rect x="326.198" y="34.47" fill-rule="evenodd" clip-rule="evenodd" width="2.596" height="1.5"/>
				</g>
			</g>
			<g>
				<g>
					<g>
						<rect x="339.124" y="27.501" fill="none" width="13.985" height="14.998"/>
					</g>
					<rect x="349.48" y="34.47" fill-rule="evenodd" clip-rule="evenodd" width="2.596" height="1.5"/>
					<rect x="344.824" y="34.47" fill-rule="evenodd" clip-rule="evenodd" width="2.596" height="1.5"/>
					<rect x="340.184" y="34.47" fill-rule="evenodd" clip-rule="evenodd" width="2.596" height="1.5"/>
				</g>
			</g>
			<g>
				<g>
					<g>
						<rect x="353.109" y="27.501" fill="none" width="13.985" height="14.998"/>
					</g>
					<rect x="363.466" y="34.47" fill-rule="evenodd" clip-rule="evenodd" width="2.596" height="1.5"/>
					<rect x="358.81" y="34.47" fill-rule="evenodd" clip-rule="evenodd" width="2.596" height="1.5"/>
					<rect x="354.169" y="34.47" fill-rule="evenodd" clip-rule="evenodd" width="2.596" height="1.5"/>
				</g>
			</g>
			<g>
				<g>
					<g>
						<rect x="367.095" y="27.501" fill="none" width="13.985" height="14.998"/>
					</g>
					<rect x="377.451" y="34.47" fill-rule="evenodd" clip-rule="evenodd" width="2.596" height="1.5"/>
					<rect x="372.795" y="34.47" fill-rule="evenodd" clip-rule="evenodd" width="2.596" height="1.5"/>
					<rect x="368.154" y="34.47" fill-rule="evenodd" clip-rule="evenodd" width="2.596" height="1.5"/>
				</g>
			</g>
		</g>
	</g>
</g>
<g>
	<g>
		<g>
			<g>
				<g>
					<g>
						<rect x="373.581" y="35" fill="none" width="14.998" height="13.5"/>
					</g>
					<rect x="380.11" y="44.997" fill-rule="evenodd" clip-rule="evenodd" width="1.5" height="2.506"/>
					<rect x="380.11" y="40.502" fill-rule="evenodd" clip-rule="evenodd" width="1.5" height="2.506"/>
					<rect x="380.11" y="36.023" fill-rule="evenodd" clip-rule="evenodd" width="1.5" height="2.506"/>
				</g>
			</g>
			<g>
				<g>
					<g>
						<rect x="373.581" y="48.5" fill="none" width="14.998" height="13.5"/>
					</g>
					<rect x="380.11" y="58.497" fill-rule="evenodd" clip-rule="evenodd" width="1.5" height="2.506"/>
					<rect x="380.11" y="54.002" fill-rule="evenodd" clip-rule="evenodd" width="1.5" height="2.506"/>
					<rect x="380.11" y="49.523" fill-rule="evenodd" clip-rule="evenodd" width="1.5" height="2.506"/>
				</g>
			</g>
			<g>
				<g>
					<g>
						<rect x="373.581" y="62" fill="none" width="14.998" height="13.5"/>
					</g>
					<rect x="380.11" y="71.997" fill-rule="evenodd" clip-rule="evenodd" width="1.5" height="2.506"/>
					<rect x="380.11" y="67.502" fill-rule="evenodd" clip-rule="evenodd" width="1.5" height="2.506"/>
					<rect x="380.11" y="63.023" fill-rule="evenodd" clip-rule="evenodd" width="1.5" height="2.506"/>
				</g>
			</g>
		</g>
	</g>
</g>
<g>
	<g>
		<g>
			<g>
				<g>
					<g>
						<rect x="231.603" y="250.5" fill="none" width="14.999" height="16.25"/>
					</g>
					<rect x="238.133" y="262.533" fill-rule="evenodd" clip-rule="evenodd" width="1.5" height="3.017"/>
					<rect x="238.133" y="257.123" fill-rule="evenodd" clip-rule="evenodd" width="1.5" height="3.017"/>
					<rect x="238.133" y="251.731" fill-rule="evenodd" clip-rule="evenodd" width="1.5" height="3.016"/>
				</g>
			</g>
			<g>
				<g>
					<g>
						<rect x="231.603" y="266.75" fill="none" width="14.999" height="16.25"/>
					</g>
					<rect x="238.133" y="278.783" fill-rule="evenodd" clip-rule="evenodd" width="1.5" height="3.017"/>
					<rect x="238.133" y="273.373" fill-rule="evenodd" clip-rule="evenodd" width="1.5" height="3.017"/>
					<rect x="238.133" y="267.981" fill-rule="evenodd" clip-rule="evenodd" width="1.5" height="3.016"/>
				</g>
			</g>
		</g>
	</g>
</g>
<g>
	<g>
		<g>
			<g>
				<g>
					<g>
						<rect x="239.102" y="275.501" fill="none" width="13.198" height="14.998"/>
					</g>
					<rect x="248.875" y="282.47" fill-rule="evenodd" clip-rule="evenodd" width="2.45" height="1.5"/>
					<rect x="244.481" y="282.47" fill-rule="evenodd" clip-rule="evenodd" width="2.45" height="1.5"/>
					<rect x="240.102" y="282.47" fill-rule="evenodd" clip-rule="evenodd" width="2.45" height="1.5"/>
				</g>
			</g>
			<g>
				<g>
					<g>
						<rect x="252.3" y="275.501" fill="none" width="13.198" height="14.998"/>
					</g>
					<rect x="262.073" y="282.47" fill-rule="evenodd" clip-rule="evenodd" width="2.45" height="1.5"/>
					<rect x="257.679" y="282.47" fill-rule="evenodd" clip-rule="evenodd" width="2.45" height="1.5"/>
					<rect x="253.3" y="282.47" fill-rule="evenodd" clip-rule="evenodd" width="2.45" height="1.5"/>
				</g>
			</g>
			<g>
				<g>
					<g>
						<rect x="265.498" y="275.501" fill="none" width="13.198" height="14.998"/>
					</g>
					<rect x="275.271" y="282.47" fill-rule="evenodd" clip-rule="evenodd" width="2.45" height="1.5"/>
					<rect x="270.877" y="282.47" fill-rule="evenodd" clip-rule="evenodd" width="2.45" height="1.5"/>
					<rect x="266.498" y="282.47" fill-rule="evenodd" clip-rule="evenodd" width="2.45" height="1.5"/>
				</g>
			</g>
			<g>
				<g>
					<g>
						<rect x="278.695" y="275.501" fill="none" width="13.198" height="14.998"/>
					</g>
					<rect x="288.468" y="282.47" fill-rule="evenodd" clip-rule="evenodd" width="2.45" height="1.5"/>
					<rect x="284.075" y="282.47" fill-rule="evenodd" clip-rule="evenodd" width="2.45" height="1.5"/>
					<rect x="279.695" y="282.47" fill-rule="evenodd" clip-rule="evenodd" width="2.45" height="1.5"/>
				</g>
			</g>
			<g>
				<g>
					<g>
						<rect x="291.893" y="275.501" fill="none" width="13.198" height="14.998"/>
					</g>
					<rect x="301.666" y="282.47" fill-rule="evenodd" clip-rule="evenodd" width="2.45" height="1.5"/>
					<rect x="297.272" y="282.47" fill-rule="evenodd" clip-rule="evenodd" width="2.45" height="1.5"/>
					<rect x="292.893" y="282.47" fill-rule="evenodd" clip-rule="evenodd" width="2.45" height="1.5"/>
				</g>
			</g>
			<g>
				<g>
					<g>
						<rect x="305.091" y="275.501" fill="none" width="13.198" height="14.998"/>
					</g>
					<rect x="314.864" y="282.47" fill-rule="evenodd" clip-rule="evenodd" width="2.449" height="1.5"/>
					<rect x="310.471" y="282.47" fill-rule="evenodd" clip-rule="evenodd" width="2.449" height="1.5"/>
					<rect x="306.091" y="282.47" fill-rule="evenodd" clip-rule="evenodd" width="2.45" height="1.5"/>
				</g>
			</g>
			<g>
				<g>
					<g>
						<rect x="318.289" y="275.501" fill="none" width="13.197" height="14.998"/>
					</g>
					<rect x="328.062" y="282.47" fill-rule="evenodd" clip-rule="evenodd" width="2.45" height="1.5"/>
					<rect x="323.668" y="282.47" fill-rule="evenodd" clip-rule="evenodd" width="2.45" height="1.5"/>
					<rect x="319.289" y="282.47" fill-rule="evenodd" clip-rule="evenodd" width="2.449" height="1.5"/>
				</g>
			</g>
			<g>
				<g>
					<g>
						<rect x="331.486" y="275.501" fill="none" width="13.198" height="14.998"/>
					</g>
					<rect x="341.26" y="282.47" fill-rule="evenodd" clip-rule="evenodd" width="2.449" height="1.5"/>
					<rect x="336.866" y="282.47" fill-rule="evenodd" clip-rule="evenodd" width="2.449" height="1.5"/>
					<rect x="332.486" y="282.47" fill-rule="evenodd" clip-rule="evenodd" width="2.45" height="1.5"/>
				</g>
			</g>
			<g>
				<g>
					<g>
						<rect x="344.685" y="275.501" fill="none" width="13.197" height="14.998"/>
					</g>
					<rect x="354.457" y="282.47" fill-rule="evenodd" clip-rule="evenodd" width="2.45" height="1.5"/>
					<rect x="350.063" y="282.47" fill-rule="evenodd" clip-rule="evenodd" width="2.45" height="1.5"/>
					<rect x="345.685" y="282.47" fill-rule="evenodd" clip-rule="evenodd" width="2.449" height="1.5"/>
				</g>
			</g>
			<g>
				<g>
					<g>
						<rect x="357.882" y="275.501" fill="none" width="13.198" height="14.998"/>
					</g>
					<rect x="367.655" y="282.47" fill-rule="evenodd" clip-rule="evenodd" width="2.45" height="1.5"/>
					<rect x="363.262" y="282.47" fill-rule="evenodd" clip-rule="evenodd" width="2.449" height="1.5"/>
					<rect x="358.882" y="282.47" fill-rule="evenodd" clip-rule="evenodd" width="2.45" height="1.5"/>
				</g>
			</g>
		</g>
	</g>
</g>
<g>
	<g>
		<g>
			<g>
				<g>
					<g>
						<rect x="363.581" y="266.75" fill="none" width="14.998" height="16.25"/>
					</g>
					<rect x="370.55" y="267.95" fill-rule="evenodd" clip-rule="evenodd" width="1.5" height="3.017"/>
					<rect x="370.55" y="273.36" fill-rule="evenodd" clip-rule="evenodd" width="1.5" height="3.017"/>
					<rect x="370.55" y="278.753" fill-rule="evenodd" clip-rule="evenodd" width="1.5" height="3.016"/>
				</g>
			</g>
			<g>
				<g>
					<g>
						<rect x="363.581" y="250.5" fill="none" width="14.998" height="16.25"/>
					</g>
					<rect x="370.55" y="251.7" fill-rule="evenodd" clip-rule="evenodd" width="1.5" height="3.017"/>
					<rect x="370.55" y="257.11" fill-rule="evenodd" clip-rule="evenodd" width="1.5" height="3.017"/>
					<rect x="370.55" y="262.503" fill-rule="evenodd" clip-rule="evenodd" width="1.5" height="3.016"/>
				</g>
			</g>
		</g>
	</g>
</g>
<g>
	<g>
		<g>
			<g>
				<g>
					<g>
						<rect x="440.501" y="148" fill="none" width="14.998" height="15"/>
					</g>
					<rect x="447.03" y="159.107" fill-rule="evenodd" clip-rule="evenodd" width="1.5" height="2.784"/>
					<rect x="447.03" y="154.114" fill-rule="evenodd" clip-rule="evenodd" width="1.5" height="2.784"/>
					<rect x="447.03" y="149.137" fill-rule="evenodd" clip-rule="evenodd" width="1.5" height="2.784"/>
				</g>
			</g>
			<g>
				<g>
					<g>
						<rect x="440.501" y="163" fill="none" width="14.998" height="15"/>
					</g>
					<rect x="447.03" y="174.107" fill-rule="evenodd" clip-rule="evenodd" width="1.5" height="2.784"/>
					<rect x="447.03" y="169.114" fill-rule="evenodd" clip-rule="evenodd" width="1.5" height="2.784"/>
					<rect x="447.03" y="164.137" fill-rule="evenodd" clip-rule="evenodd" width="1.5" height="2.784"/>
				</g>
			</g>
		</g>
	</g>
</g>
<g>
	<g>
		<g>
			<g>
				<g>
					<g>
						<rect x="381.08" y="170.501" fill="none" width="13.384" height="14.998"/>
					</g>
					<rect x="390.991" y="177.47" fill-rule="evenodd" clip-rule="evenodd" width="2.484" height="1.5"/>
					<rect x="386.535" y="177.47" fill-rule="evenodd" clip-rule="evenodd" width="2.484" height="1.5"/>
					<rect x="382.094" y="177.47" fill-rule="evenodd" clip-rule="evenodd" width="2.484" height="1.5"/>
				</g>
			</g>
			<g>
				<g>
					<g>
						<rect x="394.464" y="170.501" fill="none" width="13.384" height="14.998"/>
					</g>
					<rect x="404.375" y="177.47" fill-rule="evenodd" clip-rule="evenodd" width="2.484" height="1.5"/>
					<rect x="399.919" y="177.47" fill-rule="evenodd" clip-rule="evenodd" width="2.484" height="1.5"/>
					<rect x="395.479" y="177.47" fill-rule="evenodd" clip-rule="evenodd" width="2.484" height="1.5"/>
				</g>
			</g>
			<g>
				<g>
					<g>
						<rect x="407.848" y="170.501" fill="none" width="13.385" height="14.998"/>
					</g>
					<rect x="417.759" y="177.47" fill-rule="evenodd" clip-rule="evenodd" width="2.484" height="1.5"/>
					<rect x="413.304" y="177.47" fill-rule="evenodd" clip-rule="evenodd" width="2.483" height="1.5"/>
					<rect x="408.862" y="177.47" fill-rule="evenodd" clip-rule="evenodd" width="2.484" height="1.5"/>
				</g>
			</g>
			<g>
				<g>
					<g>
						<rect x="421.232" y="170.501" fill="none" width="13.384" height="14.998"/>
					</g>
					<rect x="431.143" y="177.47" fill-rule="evenodd" clip-rule="evenodd" width="2.484" height="1.5"/>
					<rect x="426.688" y="177.47" fill-rule="evenodd" clip-rule="evenodd" width="2.484" height="1.5"/>
					<rect x="422.246" y="177.47" fill-rule="evenodd" clip-rule="evenodd" width="2.484" height="1.5"/>
				</g>
			</g>
			<g>
				<g>
					<g>
						<rect x="434.616" y="170.501" fill="none" width="13.384" height="14.998"/>
					</g>
					<rect x="444.527" y="177.47" fill-rule="evenodd" clip-rule="evenodd" width="2.483" height="1.5"/>
					<rect x="440.071" y="177.47" fill-rule="evenodd" clip-rule="evenodd" width="2.484" height="1.5"/>
					<rect x="435.63" y="177.47" fill-rule="evenodd" clip-rule="evenodd" width="2.484" height="1.5"/>
				</g>
			</g>
		</g>
	</g>
</g>
</svg>
